HIERARCHY
ROOT SpineBase
{
  OFFSET 0.000000 0.000000 0.000000
  CHANNELS 6 Xposition Yposition Zposition Zrotation Xrotation Yrotation
  JOINT SpineMid
  {
    OFFSET 0.000000 31.406542 0.000000
    CHANNELS 3 Zrotation Xrotation Yrotation
    JOINT SpineShoulder
    {
      OFFSET -0.090226 23.311526 -1.070479
      CHANNELS 3 Zrotation Xrotation Yrotation
      JOINT Neck
      {
        OFFSET -0.025587 7.713241 -0.692259
        CHANNELS 3 Zrotation Xrotation Yrotation
        JOINT Head
        {
          OFFSET -5.311209 12.318981 -0.189354
          CHANNELS 3 Zrotation Xrotation Yrotation
          End Site
          {
            OFFSET 0 0 0
          }
        }
      }
      JOINT ShoulderLeft
      {
        OFFSET -14.734880 -3.499501 7.111848
        CHANNELS 3 Zrotation Xrotation Yrotation
        JOINT ElbowLeft
        {
          OFFSET -2.335890 -22.448655 5.634055
          CHANNELS 3 Zrotation Xrotation Yrotation
          JOINT WristLeft
          {
            OFFSET 1.377197 -22.372725 -5.576205
            CHANNELS 3 Zrotation Xrotation Yrotation
            JOINT HandLeft
            {
              OFFSET 3.154145 -3.711218 -8.394608
              CHANNELS 3 Zrotation Xrotation Yrotation
              JOINT HandTipLeft
              {
                OFFSET -0.089243 -8.493811 0.863543
                CHANNELS 3 Zrotation Xrotation Yrotation
                End Site
                {
                  OFFSET 0 0 0
                }
              }
              JOINT ThumbLeft
              {
                OFFSET 1.333501 0.459556 -2.927030
                CHANNELS 3 Zrotation Xrotation Yrotation
                End Site
                {
                  OFFSET 0 0 0
                }
              }
            }
          }
        }
      }
      JOINT ShoulderRight
      {
        OFFSET 13.306267 -2.471311 -6.308965
        CHANNELS 3 Zrotation Xrotation Yrotation
        JOINT ElbowRight
        {
          OFFSET 13.143484 -20.095639 3.618781
          CHANNELS 3 Zrotation Xrotation Yrotation
          JOINT WristRight
          {
            OFFSET -3.789386 -19.428460 -8.362418
            CHANNELS 3 Zrotation Xrotation Yrotation
            JOINT HandRight
            {
              OFFSET -3.153484 -4.127243 2.186627
              CHANNELS 3 Zrotation Xrotation Yrotation
              JOINT HandTipRight
              {
                OFFSET 1.365965 -5.705604 -0.326099
                CHANNELS 3 Zrotation Xrotation Yrotation
                End Site
                {
                  OFFSET 0 0 0
                }
              }
              JOINT ThumbRight
              {
                OFFSET 3.949251 0.356536 -2.841222
                CHANNELS 3 Zrotation Xrotation Yrotation
                End Site
                {
                  OFFSET 0 0 0
                }
              }
            }
          }
        }
      }
    }
  }
  JOINT HipLeft
  {
    OFFSET -6.092196 0.111877 -0.898071
    CHANNELS 3 Zrotation Xrotation Yrotation
    JOINT KneeLeft
    {
      OFFSET 4.000324 -37.734592 6.170741
      CHANNELS 3 Zrotation Xrotation Yrotation
      JOINT AnkleLeft
      {
        OFFSET 10.329407 -37.172469 9.773063
        CHANNELS 3 Zrotation Xrotation Yrotation
        JOINT FootLeft
        {
          OFFSET -1.958223 -8.006024 -5.422539
          CHANNELS 3 Zrotation Xrotation Yrotation
          End Site
          {
            OFFSET 0 0 0
          }
        }
      }
    }
  }
  JOINT HipRight
  {
    OFFSET 6.660865 1.566316 -5.371374
    CHANNELS 3 Zrotation Xrotation Yrotation
    JOINT KneeRight
    {
      OFFSET 9.006126 -35.230820 0.034935
      CHANNELS 3 Zrotation Xrotation Yrotation
      JOINT AnkleRight
      {
        OFFSET 7.389659 -39.449940 12.349434
        CHANNELS 3 Zrotation Xrotation Yrotation
        JOINT FootRight
        {
          OFFSET -1.823620 -8.307048 -4.108004
          CHANNELS 3 Zrotation Xrotation Yrotation
          End Site
          {
            OFFSET 0 0 0
          }
        }
      }
    }
  }
}
MOTION
Frames: 10
Frame Time: 0.033333
-26.862596 83.076013 329.824609 2.894166 -0.834676 18.575692 0.108150 1.578389 -18.474594 -0.231857 0.523997 0.078160 1.255738 1.103293 0.816843 0.000000 0.000000 0.000000 -1.168910 -4.087946 0.393124 -2.499595 -2.409747 -0.524997 -68.167745 -64.206113 -57.571350 112.798263 68.979612 -86.510438 0.000000 0.000000 0.000000 0.000000 0.000000 0.000000 12.142943 25.557078 16.327129 14.354907 19.891680 -40.213344 5.375898 6.322849 -35.460652 -38.760185 -35.424633 29.773827 0.000000 0.000000 0.000000 0.000000 0.000000 0.000000 -2.478559 1.711975 -18.517568 -0.315868 0.968107 0.189210 2.039974 -3.296986 -0.735562 0.000000 0.000000 0.000000 -2.238462 3.709563 -18.025144 0.390010 -1.973783 -0.497063 2.059492 5.830127 -2.354099 0.000000 0.000000 0.000000
-26.976382 83.097351 329.902320 2.851111 -0.317770 20.112990 0.104834 1.663583 -20.030880 -0.262188 0.529057 0.069121 1.962089 0.689047 0.936547 0.000000 0.000000 0.000000 -1.229951 -4.536527 0.327232 -2.575739 -3.965342 -0.508735 -67.242177 -65.936004 -51.653813 106.564974 65.818622 -82.224681 0.000000 0.000000 0.000000 0.000000 0.000000 0.000000 13.692882 30.077854 19.090102 15.822149 20.013218 -45.540164 2.310419 7.453761 -53.099105 -32.358263 -43.056920 44.122574 0.000000 0.000000 0.000000 0.000000 0.000000 0.000000 -2.780072 2.189221 -20.070623 0.158456 0.204212 0.184476 2.049811 -2.602180 -0.896377 0.000000 0.000000 0.000000 -2.113617 3.102116 -19.615938 0.183926 -1.870739 -0.474873 2.287905 5.877015 -2.487676 0.000000 0.000000 0.000000
-27.092708 83.116874 329.987778 2.779394 0.204103 21.824990 0.116984 1.722287 -21.762074 -0.275014 0.538253 0.061014 2.624525 -0.035119 0.939652 0.000000 0.000000 0.000000 -1.442809 -4.901244 0.204951 -2.386183 -4.960886 -0.436566 -49.576871 -63.991540 -29.872585 84.316997 61.798099 -63.381081 0.000000 0.000000 0.000000 0.000000 0.000000 0.000000 14.760570 35.772215 22.561316 15.458687 20.548112 -50.857696 3.126571 7.303642 -66.325797 -31.340296 -47.604944 53.787613 0.000000 0.000000 0.000000 0.000000 0.000000 0.000000 -2.642516 2.064930 -21.762014 0.095338 -0.156693 0.134435 2.167208 -2.187720 -1.084134 0.000000 0.000000 0.000000 -2.009213 2.457185 -21.384619 -0.014175 -1.738222 -0.444614 2.416102 6.096100 -2.606161 0.000000 0.000000 0.000000
-27.237376 83.126037 330.069208 2.736078 0.703433 23.670284 0.150956 1.726284 -23.622678 -0.272694 0.528587 0.057329 2.650728 -0.527648 0.972893 0.000000 0.000000 0.000000 -1.916294 -2.867230 -0.228977 -1.862386 -7.430897 -0.116799 -30.008741 -53.707691 -10.479581 51.128233 55.266737 -34.740411 0.000000 0.000000 0.000000 0.000000 0.000000 0.000000 14.746967 42.726593 27.052696 14.842129 21.406481 -56.840329 2.512720 5.471621 -78.743210 -26.489266 -50.699165 66.408335 0.000000 0.000000 0.000000 0.000000 0.000000 0.000000 -2.527293 1.956420 -23.583914 0.072448 -0.564356 0.080478 2.054665 -1.709839 -1.149328 0.000000 0.000000 0.000000 -1.930078 1.775568 -23.295315 -0.265920 -1.552574 -0.401010 2.628757 6.214082 -2.747954 0.000000 0.000000 0.000000
-27.413690 83.164346 330.147306 2.677642 1.149403 25.426450 0.211302 1.691024 -25.390482 -0.239008 0.551376 0.057960 1.935149 -1.227492 0.864303 0.000000 0.000000 0.000000 -1.912409 -3.312311 -0.237341 -1.656234 -6.222393 -0.061495 -27.127663 -51.828926 -5.677663 55.688535 55.877175 -39.773391 0.000000 0.000000 0.000000 0.000000 0.000000 0.000000 12.094727 49.146775 32.514196 15.262210 23.443879 -62.364279 0.729935 1.983901 -87.942988 -18.536091 -50.872583 79.413837 0.000000 0.000000 0.000000 0.000000 0.000000 0.000000 -2.371338 1.851017 -25.310687 0.085738 -1.009376 0.026547 1.944111 -1.021206 -1.300626 0.000000 0.000000 0.000000 -1.868453 1.121274 -25.114084 -0.516514 -1.356142 -0.353717 2.859493 6.511851 -2.940862 0.000000 0.000000 0.000000
-27.604298 83.209857 330.217614 2.590993 1.457955 26.982586 0.278672 1.565734 -26.950329 -0.227589 0.492776 0.058932 0.982548 -1.109367 0.928740 0.000000 0.000000 0.000000 -1.677626 -2.045527 -0.320191 -1.725099 -5.848082 0.095999 -26.356595 -51.717643 -3.550986 60.524904 55.351565 -44.424593 0.000000 0.000000 0.000000 0.000000 0.000000 0.000000 8.320362 56.130554 39.485159 15.459401 25.609460 -68.638543 -4.903587 -1.871200 -97.518698 -8.874873 -44.711445 95.142844 0.000000 0.000000 0.000000 0.000000 0.000000 0.000000 -2.140978 1.802313 -26.830758 0.032140 -1.309905 -0.009132 1.704448 -0.364527 -1.367327 0.000000 0.000000 0.000000 -1.739175 0.564835 -26.723702 -0.790621 -1.167511 -0.307842 2.923321 6.966411 -3.078942 0.000000 0.000000 0.000000
-27.794664 83.249843 330.282761 2.533236 1.692407 28.248323 0.356398 1.424680 -28.215096 -0.214195 0.431017 0.062706 0.405316 -0.818547 1.045043 0.000000 0.000000 0.000000 -2.480670 -1.402208 -0.625251 -1.371354 -5.635856 0.501224 -25.358164 -50.968562 -3.478241 59.750646 57.297027 -44.035080 0.000000 0.000000 0.000000 0.000000 0.000000 0.000000 5.499719 63.266418 47.027639 13.235608 29.311794 -76.610982 -21.403096 -4.552835 -110.156029 -5.629119 -26.815034 110.114691 0.000000 0.000000 0.000000 0.000000 0.000000 0.000000 -1.931428 1.779385 -28.060304 0.001899 -2.344480 -0.247400 1.312356 0.986562 -1.138034 0.000000 0.000000 0.000000 -1.605610 0.090691 -28.031795 -1.080291 -1.007034 -0.268647 2.937973 7.058503 -3.107865 0.000000 0.000000 0.000000
-27.968151 83.274412 330.336180 2.444376 1.829565 29.198227 0.387967 1.300061 -29.163709 -0.234648 0.350593 0.060407 0.750122 -0.316238 1.250073 0.000000 0.000000 0.000000 -3.587392 -0.855191 -1.003199 -0.604669 -5.048513 1.018804 -26.710588 -52.404419 -7.021863 60.740032 60.015231 -44.364229 0.000000 0.000000 0.000000 0.000000 0.000000 0.000000 2.953224 68.464590 53.503237 13.277643 37.766619 -86.211215 -18.790734 -13.396483 -108.435995 -12.819681 -22.299132 107.521286 0.000000 0.000000 0.000000 0.000000 0.000000 0.000000 -1.675768 1.764472 -28.973010 -0.131826 -2.550482 -0.293884 1.041045 1.695730 -1.126504 0.000000 0.000000 0.000000 -1.402996 -0.307358 -29.013066 -1.372966 -0.871168 -0.235221 3.151758 6.771331 -3.159555 0.000000 0.000000 0.000000
-28.114507 83.292247 330.376328 2.435920 1.913155 30.149220 0.463879 1.159576 -30.108116 -0.213892 0.271066 0.068289 1.025327 0.216472 1.429430 0.000000 0.000000 0.000000 -4.072288 0.048150 -1.191003 -0.594385 -5.629141 1.271618 -28.578571 -53.650122 -11.780075 60.793674 63.382892 -43.498087 0.000000 0.000000 0.000000 0.000000 0.000000 0.000000 9.406728 73.031984 52.731312 10.612640 46.678027 -96.785287 -17.956487 -20.468629 -104.579675 -22.695889 -17.860836 103.078126 0.000000 0.000000 0.000000 0.000000 0.000000 0.000000 -1.476881 1.844456 -29.888965 -0.246332 -2.763750 -0.338015 0.841924 2.269534 -1.128960 0.000000 0.000000 0.000000 -1.259156 -0.631134 -29.995823 -1.666564 -0.729341 -0.199446 3.632804 6.366433 -3.328910 0.000000 0.000000 0.000000
-28.271923 83.351828 330.421791 2.406096 1.861580 31.172501 0.489945 0.980946 -31.122260 -0.213311 0.172812 0.072925 1.591576 0.936663 1.602067 0.000000 0.000000 0.000000 -4.551488 0.677515 -1.325857 -0.325880 -5.981760 1.444121 -30.455446 -54.636811 -15.752129 60.881105 65.968177 -42.801967 0.000000 0.000000 0.000000 0.000000 0.000000 0.000000 19.110650 78.244153 49.171030 9.089550 51.637347 -107.174262 -12.960736 -22.391442 -99.671655 -27.748894 -20.479906 94.887396 0.000000 0.000000 0.000000 0.000000 0.000000 0.000000 -1.154613 2.045889 -30.869084 -0.376821 -3.010932 -0.389255 0.720496 2.741130 -1.158797 0.000000 0.000000 0.000000 -0.982313 -0.865535 -31.041239 -2.015405 -0.606972 -0.168595 4.118162 5.889870 -3.481284 0.000000 0.000000 0.000000
